HIERARCHY
ROOT Hips
{
 OFFSET 0.000000 0.000000 0.000000
 CHANNELS 6 Xposition Yposition Zposition Yrotation Xrotation Zrotation
 JOINT Chest
 {
  OFFSET 0.000000 9.585900 0.002600
  CHANNELS 3 Yrotation Xrotation Zrotation
  JOINT Chest2
  {
   OFFSET 0.000000 9.601200 -0.005300
   CHANNELS 3 Yrotation Xrotation Zrotation
   JOINT Chest3
   {
    OFFSET 0.000000 9.561800 0.000000
    CHANNELS 3 Yrotation Xrotation Zrotation
    JOINT Chest4
    {
     OFFSET 0.000000 9.552100 0.000000
     CHANNELS 3 Yrotation Xrotation Zrotation
     JOINT Neck
     {
      OFFSET 0.000000 14.453000 0.000000
      CHANNELS 3 Yrotation Xrotation Zrotation
      JOINT Head
      {
       OFFSET 0.000000 8.936500 -0.011300
       CHANNELS 3 Yrotation Xrotation Zrotation
       End Site
       {
        OFFSET 0.000000 17.073600 -0.006000
       }
      }
     }
     JOINT RightCollar
     {
      OFFSET -2.921100 9.558500 0.000000
      CHANNELS 3 Yrotation Xrotation Zrotation
      JOINT RightShoulder
      {
       OFFSET -13.519700 0.000000 0.000000
       CHANNELS 3 Yrotation Xrotation Zrotation
       JOINT RightElbow
       {
        OFFSET 0.000000 -29.696600 0.000000
        CHANNELS 3 Yrotation Xrotation Zrotation
        JOINT RightWrist
        {
         OFFSET 0.000000 -24.004700 0.000000
         CHANNELS 3 Yrotation Xrotation Zrotation
         End Site
         {
          OFFSET 0.000000 -17.728500 0.000000
         }
        }
       }
      }
     }
     JOINT LeftCollar
     {
      OFFSET 2.921100 9.558500 0.000000
      CHANNELS 3 Yrotation Xrotation Zrotation
      JOINT LeftShoulder
      {
       OFFSET 13.519700 0.000000 0.000000
       CHANNELS 3 Yrotation Xrotation Zrotation
       JOINT LeftElbow
       {
        OFFSET 0.000000 -29.696600 0.000000
        CHANNELS 3 Yrotation Xrotation Zrotation
        JOINT LeftWrist
        {
         OFFSET 0.000000 -24.004700 0.000000
         CHANNELS 3 Yrotation Xrotation Zrotation
         End Site
         {
          OFFSET 0.000000 -17.728500 0.000000
         }
        }
       }
      }
     }
    }
   }
  }
 }
 JOINT RightHip
 {
  OFFSET -7.771700 -0.012900 -0.001300
  CHANNELS 3 Yrotation Xrotation Zrotation
  JOINT RightKnee
  {
   OFFSET 0.000000 -40.869800 0.001200
   CHANNELS 3 Yrotation Xrotation Zrotation
   JOINT RightAnkle
   {
    OFFSET 0.000000 -39.717900 0.002100
    CHANNELS 3 Yrotation Xrotation Zrotation
    JOINT RightToe
    {
     OFFSET 0.000000 -4.965400 11.033500
     CHANNELS 3 Yrotation Xrotation Zrotation
     End Site
     {
      OFFSET 0.000000 -1.423100 5.872300
     }
    }
   }
  }
 }
 JOINT LeftHip
 {
  OFFSET 7.771700 -0.012900 -0.001300
  CHANNELS 3 Yrotation Xrotation Zrotation
  JOINT LeftKnee
  {
   OFFSET 0.000000 -40.869800 0.001200
   CHANNELS 3 Yrotation Xrotation Zrotation
   JOINT LeftAnkle
   {
    OFFSET 0.000000 -39.717900 0.002100
    CHANNELS 3 Yrotation Xrotation Zrotation
    JOINT LeftToe
    {
     OFFSET 0.000000 -4.965400 11.033500
     CHANNELS 3 Yrotation Xrotation Zrotation
     End Site
     {
      OFFSET 0.000000 -1.423100 5.872300
     }
    }
   }
  }
 }
}
MOTION
Frames: 9
Frame Time: 0.008333
0.000000 85.388000 0.000000 0.000000 -5.767877 0.000000 0.000000 11.653817 0.000000 0.000000 -5.885947 0.000000 0.000000 -0.000000 0.000000 0.000000 -0.000000 0.000000 0.000000 12.528835 0.000000 0.000000 0.711642 0.000000 0.000000 -0.000000 0.000000 0.000000 0.000000 -90.000000 0.000000 -2.309062 0.000000 0.000000 2.309062 0.000000 0.000000 -0.000000 0.000000 0.000000 -0.000000 90.000000 0.000000 -2.309062 0.000000 0.000000 2.309062 0.000000 0.000000 8.520406 0.000000 0.000000 1.905762 0.000000 -0.000000 -4.658285 0.000000 0.000000 -0.000000 0.000000 0.000000 8.520406 0.000000 0.000000 1.905762 0.000000 -0.000000 -4.658285 0.000000 0.000000 -0.000000 0.000000
-16.103927 57.738249 40.577717 -150.060298 -35.476267 -2.443145 -15.426084 19.630306 -2.764611 -2.312132 3.150460 -0.315958 -3.715901 5.015304 -0.560021 -12.716558 16.285459 -3.126482 0.407338 18.636868 -1.987163 1.380906 -1.148989 -3.774153 2.863258 1.380469 -0.962212 2.437614 -15.550906 -12.984762 169.507629 -47.586404 -150.735362 22.361914 -15.904104 -52.002052 -5.531777 0.202310 -0.774081 11.175373 -6.861385 -4.167392 -167.065753 -37.642629 151.110706 -15.740152 -10.652863 33.262687 -1.924940 -33.401721 -28.101179 -4.357314 67.316044 -2.375214 4.610533 9.263597 8.024940 -0.066437 0.150466 -0.042799 -21.256522 -48.003499 -22.101111 28.614830 67.441191 27.205804 -15.036045 32.871675 -1.069051 0.549437 -19.889728 -6.996372
-16.109318 57.739443 40.577625 -150.060053 -35.484354 -2.439013 -15.427505 19.621602 -2.766720 -2.309605 3.128606 -0.309451 -3.719471 4.954071 -0.544809 -12.732128 16.308588 -3.147369 0.535128 18.670014 -1.998936 1.617844 -1.082514 -3.835660 2.856028 1.429771 -0.969112 2.402541 -15.555329 -12.917426 169.445736 -47.571012 -150.697121 22.360780 -15.901667 -52.049292 -5.523151 0.229282 -0.770188 11.186909 -6.816555 -4.177134 -167.075631 -37.641229 151.124944 -15.772028 -10.644524 33.261721 -1.922098 -33.386203 -28.113048 -4.353807 67.309048 -2.367296 4.615384 9.251614 8.028159 -0.068616 0.159843 -0.042003 -21.227093 -47.990902 -22.137465 28.621994 67.432590 27.232301 -15.031354 32.876516 -1.067754 0.560825 -19.878591 -7.003032
-16.116223 57.740906 40.578157 -150.055166 -35.492971 -2.428618 -15.446161 19.591332 -2.780763 -2.308804 3.121758 -0.308403 -3.719974 4.942819 -0.543703 -12.733148 16.322215 -3.157632 0.678676 18.668061 -1.992975 1.891684 -1.013018 -3.903058 2.833538 1.410488 -0.935563 2.392938 -15.522256 -12.876169 169.368833 -47.549862 -150.652044 22.355447 -15.902416 -52.101715 -5.514186 0.225188 -0.753477 11.204713 -6.753225 -4.169410 -167.049440 -37.625416 151.116609 -15.747690 -10.638261 33.275488 -1.918139 -33.372570 -28.133098 -4.384630 67.303443 -2.397905 4.631016 9.244321 8.032996 -0.068485 0.157494 -0.037768 -21.157898 -47.970387 -22.213893 28.592729 67.420049 27.247141 -15.018040 32.892216 -1.060298 0.552083 -19.885764 -7.006673
-16.122564 57.741316 40.580534 -150.046270 -35.488047 -2.416295 -15.477832 19.521321 -2.796085 -2.313893 3.097045 -0.302580 -3.712994 4.971305 -0.552404 -12.748871 16.278703 -3.146542 0.848524 18.721181 -2.013096 2.205110 -0.939321 -3.978155 2.841795 1.444250 -0.931831 2.372260 -15.482019 -12.829932 169.288279 -47.524706 -150.608818 22.350663 -15.911808 -52.157113 -5.507008 0.211621 -0.756993 11.252448 -6.567254 -4.158297 -167.064857 -37.578882 151.141556 -15.705728 -10.583138 33.271302 -1.914050 -33.375292 -28.157735 -4.360823 67.300260 -2.379362 4.625057 9.242967 8.038450 -0.067184 0.156342 -0.036350 -21.117850 -47.968968 -22.261455 28.592527 67.401950 27.265131 -15.021100 32.904233 -1.064799 0.556714 -19.878778 -7.000770
-16.127836 57.741818 40.582866 -150.041842 -35.481176 -2.403194 -15.491087 19.501661 -2.811039 -2.318883 3.083525 -0.298172 -3.714095 4.965057 -0.551713 -12.788767 16.202674 -3.115742 1.045613 18.777470 -2.037426 2.561510 -0.861112 -4.065123 2.885044 1.520609 -0.967947 2.354481 -15.466653 -12.801501 169.222866 -47.502553 -150.626081 22.351208 -15.929057 -52.215807 -5.482084 0.219254 -0.804846 11.282651 -6.397534 -4.143001 -167.025910 -37.611058 151.135599 -15.674211 -10.629206 33.296842 -1.896343 -33.375024 -28.187932 -4.346790 67.296863 -2.355754 4.621432 9.240339 8.038644 -0.063534 0.156014 -0.033888 -21.092851 -47.974560 -22.290602 28.598515 67.386772 27.273985 -15.022947 32.922853 -1.058913 0.558094 -19.869207 -7.000419
-16.132821 57.742936 40.584851 -150.033022 -35.477198 -2.389673 -15.521776 19.453792 -2.820563 -2.347493 3.058620 -0.289828 -3.681125 4.997020 -0.571655 -12.850570 16.141161 -3.086432 1.264813 18.813764 -2.058022 2.968057 -0.783022 -4.170825 2.950566 1.582783 -1.012002 2.283075 -15.457234 -12.699348 169.143828 -47.467794 -150.562409 22.355203 -15.948351 -52.275471 -5.441339 0.219193 -0.876340 11.296650 -6.221659 -4.125728 -166.997124 -37.649500 151.147291 -15.656316 -10.653771 33.315436 -1.872170 -33.367747 -28.224427 -4.344802 67.293787 -2.340532 4.627338 9.236724 8.040582 -0.067614 0.154607 -0.028462 -21.067950 -47.978034 -22.325002 28.596528 67.372087 27.274849 -15.021642 32.944444 -1.047335 0.552931 -19.871123 -7.002749
-16.137634 57.745094 40.585876 -150.027788 -35.480631 -2.371092 -15.628482 19.356390 -2.832131 -2.325386 3.083453 -0.304093 -3.664299 4.992005 -0.587344 -12.912493 16.114671 -3.071849 1.511574 18.842726 -2.087006 3.427854 -0.716177 -4.300521 3.048660 1.573577 -1.051805 2.219662 -15.363989 -12.615383 169.061666 -47.428500 -150.508000 22.362003 -15.959927 -52.332403 -5.389682 0.205084 -0.975362 11.313634 -5.997966 -4.108599 -166.962042 -37.683268 151.167617 -15.634476 -10.659604 33.334182 -1.843375 -33.354251 -28.261341 -4.346180 67.292319 -2.332181 4.626286 9.234888 8.048603 -0.066625 0.151528 -0.028372 -21.023410 -47.968969 -22.370216 28.573822 67.357586 27.261012 -15.032365 32.961276 -1.043204 0.557799 -19.869716 -7.002209
-16.140093 57.746634 40.587428 -150.018418 -35.473289 -2.357951 -15.706295 19.300298 -2.836233 -2.337460 3.078071 -0.302698 -3.735862 4.939427 -0.558276 -12.928664 16.112931 -3.108449 1.784211 18.857458 -2.125867 3.938632 -0.672942 -4.456849 3.173322 1.575316 -1.135120 2.167239 -15.275786 -12.522505 168.979506 -47.392696 -150.486267 22.365967 -15.960271 -52.383870 -5.338493 0.173109 -1.090626 11.347438 -5.716850 -4.100356 -166.922262 -37.729928 151.196470 -15.611903 -10.664455 33.358422 -1.824591 -33.353688 -28.289470 -4.330223 67.291413 -2.312436 4.619209 9.232144 8.057111 -0.065709 0.148527 -0.028747 -20.967650 -47.957997 -22.404907 28.493860 67.349851 27.201056 -15.068950 32.958316 -1.064154 0.578010 -19.851864 -6.985152
